<?xml version="1.0" encoding="UTF-8"?>
<svg id="Layer_1" data-name="Layer 1" xmlns="http://www.w3.org/2000/svg" viewBox="0 0 245.59 267.54">
  <defs>
    <style>
      .cls-1 {
        fill: #fff;
      }

      .cls-2 {
        fill: #01b636;
      }
    </style>
  </defs>
  <g>
    <path class="cls-2" d="M238.8,27.57h6.79l-1.42-6.13c-3.16-13.62-16.52-21.44-36.65-21.44-12.69,0-21.29,2.84-26.71,7.01-6.13-3.73-14.1-5.79-23.46-5.79h-35.23v8.73l-4.11-8.73h-30.24l-4.2,8.85V1.22h-35.59l-6.19,18.44L35.59,1.22H0v60.4h27.6l-.02-6.71,2.34,6.71h23.06l2.34-6.71-.02,6.71h35.86l3.53-8.5h14.95l3.53,8.5h44.09c9.92,0,18.3-2.3,24.56-6.45,5.51,4.34,14.31,7.67,28.33,7.67,21.4,0,35.23-8.66,35.23-22.07,0-6.07-2.69-10.26-6.6-13.22ZM155.73,38.38h-1.99v-13.69h1.99c5.41,0,6.4,2.32,6.4,6.88s-.99,6.81-6.4,6.81Z"/>
    <path class="cls-1" d="M215.39,25.16c-8.09-1.3-15.08-2.09-15.08-5.4,0-1.94,2.28-3.53,7.87-3.53s9.34,2.16,10.45,6.34h20.67c-2.58-11.09-13.61-17.57-31.78-17.57-13.05,0-21.87,3.24-26.22,8.38-5.62-4.67-13.91-7.16-23.95-7.16h-30.23v26.06l-12.28-26.06h-23.91l-12.36,26.05V6.22h-27l-4.85,14.47-4.93,14.62-4.93-14.62-4.85-14.47H5v50.4h17.58l-.07-25.27-.07-6.48,2.21,6.48,8.83,25.27h15.96l8.83-25.27,2.21-6.48-.07,6.48-.07,25.27h27.51l3.53-8.5h21.63l3.53,8.5h40.75c10.59,0,19.27-2.78,24.92-8,5.2,6,14.69,9.22,27.97,9.22,18.98,0,30.23-6.98,30.23-17.07,0-11.31-13.61-13.9-25.01-15.63ZM95.78,37.62l6.4-15.55,6.4,15.55h-12.8ZM155.73,43.38h-6.99v-23.69h6.99c7.14,0,11.4,3.46,11.4,11.88s-4.27,11.81-11.4,11.81ZM209.72,46.84c-6.03,0-9.49-2.09-10.59-6.48h-11.34c.67-1.78,1.14-3.69,1.37-5.73,4.66,1.64,10.15,2.48,15.12,3.21,7.65,1.08,14.05,1.94,14.05,5.18,0,2.09-2.79,3.82-8.61,3.82Z"/>
  </g>
  <path class="cls-2" d="M150.63,122.29c-13.03,0-23.47-4.1-29.93-11.52-4.62,5.94-13.29,11.44-29.54,11.44-12.99,0-21.04-3.63-26.03-8-3.34,3.56-9.19,6.78-19.4,6.78H.12v-60.4h44.75c4.76,0,8.55.72,11.56,1.82v-1.82h31.24v34.09c0,1.23,0,3.28,3.86,3.28s3.93-2.05,3.93-3.28v-34.09h30.74v5.42c6.32-4.35,14.71-6.71,24.44-6.71s17.96,2.33,24.3,6.63v-5.33h31.17v18.22h8v-18.22h31.17v60.4h-31.17v-19.15h-8v19.15h-31.17v-5.3c-6.33,4.28-14.67,6.6-24.3,6.6ZM151.14,83.2c-1.95,0-5.58,0-5.58,7.67s3.72,7.67,5.51,7.67c3.22,0,5.14-1.94,5.71-5.75l.32-2.14-.37-2.06c-.64-3.58-2.52-5.39-5.59-5.39Z"/>
  <path class="cls-1" d="M219.11,65.59v18.22h-18v-18.22h-21.17v13.03c-4.86-9.1-15.47-14.33-29.3-14.33s-24.77,5.34-29.44,14.77v-13.47h-20.74v29.09c0,5.33-3.53,8.28-8.93,8.28s-8.86-2.95-8.86-8.28v-29.09h-21.24v6.44c-2.83-4.08-8.46-6.44-16.56-6.44H5.12v50.4h40.61c10.37,0,16.97-3.87,18.65-10.42,4.41,7.54,13.63,11.65,26.79,11.65,16.01,0,26.23-5.94,29.15-16.67,4.11,10.66,15.28,16.74,30.32,16.74,13.93,0,24.49-5.23,29.3-14.32v13.02h21.17v-19.15h18v19.15h21.17v-50.4h-21.17ZM25.93,77.33h12.53c2.95,0,4.82,1.44,4.82,4.25s-1.87,4.25-4.82,4.25h-12.53v-8.5ZM39.04,104.69h-13.1v-8.71h13.1c3.1,0,4.97,1.51,4.97,4.39s-1.87,4.32-4.97,4.32ZM55.81,90.36c2.42-1.05,4.31-2.54,5.61-4.37v7.59c-1.43-1.38-3.3-2.46-5.61-3.22ZM161.72,93.53c-1.01,6.7-5.33,10.01-10.66,10.01-6.34,0-10.51-4.03-10.51-12.67s4.18-12.67,10.58-12.67c5.11,0,9.36,3.1,10.51,9.5h18.28v5.83h-18.21Z"/>
  <g>
    <polygon class="cls-2" points="110.34 178.78 106.85 170.28 92.19 170.28 88.7 178.78 39.66 178.78 39.66 159.63 31.49 159.63 31.49 178.78 .12 178.78 .12 118.37 31.49 118.37 31.49 136.59 39.66 136.59 39.66 118.37 71.03 118.37 71.03 148.68 85.23 118.37 115.21 118.37 143.34 178.78 110.34 178.78"/>
    <path class="cls-1" d="M88.4,123.37l-22.38,47.75v-47.75h-21.37v18.22h-18.17v-18.22H5.12v50.4h21.37v-19.15h18.17v19.15h40.69l3.49-8.5h21.37l3.49,8.5h21.8l-23.47-50.4h-23.62ZM93.2,154.77l6.32-15.55,6.32,15.55h-12.65Z"/>
    <polygon class="cls-2" points="179.98 178.78 179.98 148.55 165.86 178.78 135.66 178.78 107.35 118.37 140.93 118.37 149.05 137.79 151.24 143.09 153.4 137.82 161.53 118.37 243.83 118.37 243.83 140.76 235.33 140.76 235.33 156.83 243.83 156.83 243.83 178.78 179.98 178.78"/>
    <polygon class="cls-1" points="238.83 135.76 238.83 123.37 186.22 123.37 184.98 123.37 164.86 123.37 158.02 139.72 151.26 156.21 144.43 139.72 137.6 123.37 115.22 123.37 138.84 173.78 162.68 173.78 184.98 126.03 184.98 173.78 238.83 173.78 238.83 161.83 206.2 161.83 206.2 154.12 230.33 154.12 230.33 142.74 206.2 142.74 206.2 135.76 238.83 135.76"/>
  </g>
  <path class="cls-2" d="M3.22,208.29l6.84-7.63L.12,198.21l2.38-6.41,9.36,3.74-.72-10.08h7.34l-.72,10.01,9.36-3.67,2.3,6.41-9.86,2.45,6.84,7.63-6.05,3.96-5.54-8.57-5.54,8.64-6.05-4.03Z"/>
  <g>
    <path d="M195.2,187.97c2.02-.97,3.43-1.68,4.43-2.24,2.16-1.26,2.37-1.68,2.37-2.18,0-.43-.41-.8-1.12-.8-.91,0-1.57.5-1.81,1.53h-4.08c.53-2.42,2.63-3.96,6.21-3.96,3.14,0,5.1,1.25,5.1,2.97,0,1.08-.36,1.96-3.43,3.45-.73.39-1.6.81-2.65,1.3l6.04-.08v2.42h-11.05v-2.4Z"/>
    <path d="M206.71,185.47c0-3.19,2.44-5.16,6.19-5.16s6.16,1.95,6.16,5.16-2.42,5.15-6.16,5.15-6.19-1.96-6.19-5.15ZM214.85,185.48c0-1.72-.76-2.54-1.95-2.54s-1.97.81-1.97,2.54.76,2.54,1.97,2.54,1.95-.83,1.95-2.54Z"/>
    <path d="M219.63,187.97c2.02-.97,3.43-1.68,4.43-2.24,2.16-1.26,2.37-1.68,2.37-2.18,0-.43-.41-.8-1.12-.8-.91,0-1.57.5-1.81,1.53h-4.08c.53-2.42,2.63-3.96,6.21-3.96,3.14,0,5.1,1.25,5.1,2.97,0,1.08-.36,1.96-3.43,3.45-.73.39-1.6.81-2.65,1.3l6.04-.08v2.42h-11.05v-2.4Z"/>
    <path d="M231.15,186.97h4.36c.1.91.67,1.39,1.53,1.39.9,0,1.43-.5,1.43-1.4,0-.84-.59-1.33-1.48-1.33-.6,0-1.08.22-1.44.59h-4.16l1.04-5.65h9.76v2.38h-6.62l-.31,1.65c.8-.5,1.82-.78,3-.78,2.75,0,4.48,1.22,4.48,3.15,0,2.24-2.19,3.66-5.62,3.66s-5.74-1.36-5.95-3.66Z"/>
  </g>
</svg>